<svg xmlns="http://www.w3.org/2000/svg"><defs><pattern id="a" width="58" height="87" patternTransform="scale(2)" patternUnits="userSpaceOnUse"><rect width="100%" height="100%" fill="#2b2b31" fill-opacity="0"/><path fill="none" stroke="#252131" stroke-linecap="round" stroke-linejoin="round" stroke-opacity=".76" d="M43.5 5.829a2.125 2.125 0 1 0 0 4.25 2.125 2.125 0 0 0 0-4.25m-25.057 5.67a2.125 2.125 0 1 0 0 4.251 2.125 2.125 0 0 0 0-4.25zM14.5 49.33a2.125 2.125 0 1 0 0 4.25 2.125 2.125 0 0 0 0-4.25M47.443 55a2.125 2.125 0 1 0 0 4.25 2.125 2.125 0 0 0 0-4.25"/><path fill="none" stroke="#262037" stroke-linecap="round" stroke-linejoin="round" stroke-opacity=".73" d="M9.75 36.005h-4.5m2.25-2.25v4.5m35.572-12.63h-4.5m2.25-2.25v4.5m-26.75 41.25h-4.5m2.25-2.25v4.5m26.928 8.13h-4.5m2.25-2.25v4.5"/><path fill="none" stroke="#372d4e" stroke-linecap="round" stroke-linejoin="round" stroke-opacity=".46" d="m9.123-3.597-.005.002A5.26 5.26 0 0 0 7.581-7.1a5.283 5.283 0 0 0-7.47 0L0-6.99l-.11-.11a5.283 5.283 0 0 0-7.472 0 5.26 5.26 0 0 0-1.536 3.505l-.005-.002s-.899 5.66 9.112 11.543l.008.008q.002 0 .002-.002l.002.002.008-.008C10.022 2.063 9.123-3.597 9.123-3.597m58 0-.005.002A5.26 5.26 0 0 0 65.582-7.1a5.283 5.283 0 0 0-7.471 0L58-6.99l-.11-.11a5.283 5.283 0 0 0-7.471 0 5.26 5.26 0 0 0-1.537 3.505l-.006-.002s-.899 5.66 9.113 11.543l.008.008s.002 0 .002-.002l.002.002.008-.008C68.02 2.063 67.122-3.597 67.122-3.597zm-29 43.5-.005.002a5.26 5.26 0 0 0-1.536-3.505 5.283 5.283 0 0 0-7.471 0l-.111.11-.11-.11a5.283 5.283 0 0 0-7.472 0 5.26 5.26 0 0 0-1.536 3.505l-.005-.002s-.899 5.66 9.113 11.543l.008.008s.002 0 .002-.002l.002.002.008-.008c10.012-5.883 9.113-11.543 9.113-11.543m-29 43.5h-.005A5.26 5.26 0 0 0 7.581 79.9a5.283 5.283 0 0 0-7.47 0L0 80.01l-.11-.11a5.283 5.283 0 0 0-7.472 0 5.26 5.26 0 0 0-1.536 3.505l-.005-.001s-.899 5.66 9.112 11.543l.008.008q.002 0 .002-.002l.002.002.008-.008c10.013-5.883 9.114-11.543 9.114-11.543zm58 0h-.005a5.26 5.26 0 0 0-1.536-3.504 5.283 5.283 0 0 0-7.471 0l-.111.11-.11-.11a5.283 5.283 0 0 0-7.471 0 5.26 5.26 0 0 0-1.537 3.505l-.006-.001s-.899 5.66 9.113 11.543l.008.008s.002 0 .002-.002l.002.002.008-.008c10.012-5.883 9.113-11.543 9.113-11.543z"/></pattern></defs><rect width="800%" height="800%" fill="url(#a)"/></svg>
